<?xml version="1.0" encoding="UTF-8"?>
<svg xmlns="http://www.w3.org/2000/svg" width="0" height="0">
	<defs>
		<symbol id="arrow-down" viewBox="0 0 24 24" fill="currentColor">
			<path d="M12 15.5l-6.5-6.5 1.5-1.5 5 5 5-5 1.5 1.5z"/>
		</symbol>
		<symbol id="arrow-left" viewBox="0 0 24 24" fill="currentColor">
			<path d="M8.5 12l6.5 6.5-1.5 1.5-5-5-5 5-1.5-1.5z"/>
		</symbol>
		<symbol id="arrow-right" viewBox="0 0 24 24" fill="currentColor">
			<path d="M15.5 12l-6.5-6.5 1.5-1.5 5 5 5-5 1.5 1.5z"/>
		</symbol>
		<symbol id="arrow-up" viewBox="0 0 24 24" fill="currentColor">
			<path d="M12 8.5l-6.5 6.5-1.5-1.5 5-5-5-5 1.5-1.5z"/>
		</symbol>
		<symbol id="close" viewBox="0 0 24 24" fill="currentColor">
			<path d="M13.4 12l5.3-5.3-1.4-1.4-5.3 5.3-5.3-5.3-1.4 1.4 5.3 5.3-5.3 5.3 1.4 1.4 5.3-5.3 5.3 5.3 1.4-1.4-5.3-5.3z"/>
		</symbol>
		<symbol id="menu" viewBox="0 0 24 24" fill="currentColor">
			<path d="M3 6h18v2h-18v-2zm0 7h18v2h-18v-2zm0 7h18v2h-18v-2z"/>
		</symbol>
	</defs>
</svg>
